{"accessors" : [{"bufferView" : 0, "byteOffset" : 0, "componentType" : 5123, "count" : 300, "type" : "SCALAR", "max" : [247], "min" : [0]}, {"bufferView" : 1, "byteOffset" : 0, "componentType" : 5126, "count" : 248, "type" : "VEC3", "max" : [1.9127578735351562, -0.10217481851577759, 0.2811187505722046], "min" : [1.3505202531814575, -1.235801100730896, -0.28111886978149414], "name" : "POSITION"}, {"bufferView" : 1, "byteOffset" : 12, "componentType" : 5126, "count" : 248, "type" : "VEC3", "max" : [0.9919324517250061, 3.710499925091426E-07, 0.9919324517250061], "min" : [-0.12680457532405853, -5.694034257430758E-07, 0.12680210173130035], "name" : "NORMAL"}, {"bufferView" : 1, "byteOffset" : 24, "componentType" : 5126, "count" : 248, "type" : "VEC2", "max" : [0.5516129732131958, -0.04621464014053345], "min" : [0.11211798340082169, -0.9252045750617981], "name" : "TEXCOORD_0"}, {"bufferView" : 0, "byteOffset" : 600, "componentType" : 5123, "count" : 324, "type" : "SCALAR", "max" : [269], "min" : [0]}, {"bufferView" : 2, "byteOffset" : 0, "componentType" : 5126, "count" : 270, "type" : "VEC3", "max" : [0.5187479257583618, -0.31320619583129883, -5.97536563873291E-05], "min" : [-0.2585543692111969, -0.7557764053344727, -0.9601529240608215], "name" : "POSITION"}, {"bufferView" : 2, "byteOffset" : 12, "componentType" : 5126, "count" : 270, "type" : "VEC3", "max" : [0.9298174977302551, 0.9148721694946289, 0.9825494885444641], "min" : [-0.9298170208930969, -0.9148720502853394, -0.9825498461723328], "name" : "NORMAL"}, {"bufferView" : 2, "byteOffset" : 24, "componentType" : 5126, "count" : 270, "type" : "VEC2", "max" : [0.5111231207847595, -0.07155793905258179], "min" : [0.3954983353614807, -0.2910003066062927], "name" : "TEXCOORD_0"}, {"bufferView" : 0, "byteOffset" : 1248, "componentType" : 5123, "count" : 324, "type" : "SCALAR", "max" : [269], "min" : [0]}, {"bufferView" : 3, "byteOffset" : 0, "componentType" : 5126, "count" : 270, "type" : "VEC3", "max" : [0.3800959289073944, -0.34841275215148926, 0.9684262275695801], "min" : [-0.397204726934433, -0.791351318359375, 0.008474081754684448], "name" : "POSITION"}, {"bufferView" : 3, "byteOffset" : 12, "componentType" : 5126, "count" : 270, "type" : "VEC3", "max" : [0.9298157095909119, 0.9147724509239197, 0.9824522137641907], "min" : [-0.929815411567688, -0.9147720336914062, -0.9824517965316772], "name" : "NORMAL"}, {"bufferView" : 3, "byteOffset" : 24, "componentType" : 5126, "count" : 270, "type" : "VEC2", "max" : [0.5242255330085754, -0.0534096360206604], "min" : [0.38733649253845215, -0.2902221083641052], "name" : "TEXCOORD_0"}, {"bufferView" : 0, "byteOffset" : 1896, "componentType" : 5123, "count" : 432, "type" : "SCALAR", "max" : [359], "min" : [0]}, {"bufferView" : 4, "byteOffset" : 0, "componentType" : 5126, "count" : 360, "type" : "VEC3", "max" : [0.9837799668312073, -0.08514315634965897, 0.5], "min" : [-0.9601497054100037, -1.6025440692901611, -0.5], "name" : "POSITION"}, {"bufferView" : 4, "byteOffset" : 12, "componentType" : 5126, "count" : 360, "type" : "VEC3", "max" : [0.9297122359275818, 0.9297122359275818, 1.0000044107437134], "min" : [-0.9297122359275818, -0.9297124147415161, -1.0000044107437134], "name" : "NORMAL"}, {"bufferView" : 4, "byteOffset" : 24, "componentType" : 5126, "count" : 360, "type" : "VEC2", "max" : [0.9628547430038452, -0.024340689182281494], "min" : [0.02455214411020279, -0.7494257688522339], "name" : "TEXCOORD_0"}], "asset" : {"generator" : "Aspose.3D 22.1", "version" : "2.0"}, "buffers" : [{"uri" : "data:application/octet-stream;base64,", "byteLength" : 46940}], "bufferViews" : [{"buffer" : 0, "byteOffset" : 0, "byteLength" : 2760, "target" : 34963}, {"buffer" : 0, "byteOffset" : 2764, "byteLength" : 9600, "byteStride" : 32, "target" : 34962}, {"buffer" : 0, "byteOffset" : 12368, "byteLength" : 10368, "byteStride" : 32, "target" : 34962}, {"buffer" : 0, "byteOffset" : 22740, "byteLength" : 10368, "byteStride" : 32, "target" : 34962}, {"buffer" : 0, "byteOffset" : 33112, "byteLength" : 13824, "byteStride" : 32, "target" : 34962}], "images" : [{"uri" : "data:image/png;base64,"}, {"uri" : "data:image/jpeg;base64,"}], "materials" : [{"name" : "Flower_MAT", "pbrMetallicRoughness" : {"baseColorFactor" : [1, 1, 1, 1], "baseColorTexture" : {"index" : 0, "texCoord" : 0}, "metallicFactor" : 0, "roughnessFactor" : 0.6000000238418579}, "emissiveFactor" : [0, 0, 0], "alphaMode" : "OPAQUE", "doubleSided" : false}, {"name" : "Bee_MAT", "pbrMetallicRoughness" : {"baseColorFactor" : [1, 1, 1, 1], "baseColorTexture" : {"index" : 1, "texCoord" : 0}, "metallicFactor" : 0, "roughnessFactor" : 0.6000000238418579}, "emissiveFactor" : [0, 0, 0], "alphaMode" : "OPAQUE", "doubleSided" : false}, {"name" : "Bee_MAT", "pbrMetallicRoughness" : {"baseColorFactor" : [1, 1, 1, 1], "baseColorTexture" : {"index" : 1, "texCoord" : 0}, "metallicFactor" : 0, "roughnessFactor" : 0.6000000238418579}, "emissiveFactor" : [0, 0, 0], "alphaMode" : "OPAQUE", "doubleSided" : false}, {"name" : "Bee_MAT", "pbrMetallicRoughness" : {"baseColorFactor" : [1, 1, 1, 1], "baseColorTexture" : {"index" : 1, "texCoord" : 0}, "metallicFactor" : 0, "roughnessFactor" : 0.6000000238418579}, "emissiveFactor" : [0, 0, 0], "alphaMode" : "OPAQUE", "doubleSided" : false}], "meshes" : [{"primitives" : [{"attributes" : {"POSITION" : 1, "NORMAL" : 2, "TEXCOORD_0" : 3}, "indices" : 0, "material" : 0, "mode" : 4}], "name" : "Flower_Flower_MAT_0"}, {"primitives" : [{"attributes" : {"POSITION" : 5, "NORMAL" : 6, "TEXCOORD_0" : 7}, "indices" : 4, "material" : 1, "mode" : 4}], "name" : "r_Bee_MAT_0"}, {"primitives" : [{"attributes" : {"POSITION" : 9, "NORMAL" : 10, "TEXCOORD_0" : 11}, "indices" : 8, "material" : 2, "mode" : 4}], "name" : "l_Bee_MAT_0"}, {"primitives" : [{"attributes" : {"POSITION" : 13, "NORMAL" : 14, "TEXCOORD_0" : 15}, "indices" : 12, "material" : 3, "mode" : 4}], "name" : "b_Bee_MAT_0"}], "nodes" : [{"mesh" : 0, "name" : "Flower_Flower_MAT_0"}, {"children" : [0], "matrix" : [1, 0, 0, 0, 0, 1, 0, 0, 0, 0, 1, 0, -0.2015678733587265, 0.9849708676338196, 0, 1], "name" : "Flower"}, {"mesh" : 1, "name" : "r_Bee_MAT_0"}, {"children" : [2], "matrix" : [1, 0, 0, 0, 0, 0.9715850561826999, 0.2366906812750767, 0, 0, -0.2366906812750767, 0.9715850561826999, 0, 0.06280539184808731, 2.786954641342163, -0.16616231203079224, 1], "name" : "r"}, {"mesh" : 2, "name" : "l_Bee_MAT_0"}, {"children" : [4], "matrix" : [1, 0, 0, 0, 0, 0.23714096756695766, 0.9714752500714607, 0, 0, -0.9714752500714607, 0.23714096756695766, 0, 0.20294299721717834, 2.832937002182007, 0.17867209017276764, 1], "name" : "l"}, {"mesh" : 3, "name" : "b_Bee_MAT_0"}, {"children" : [6], "matrix" : [0.9999990450186214, -0.001382013692172199, 0, 0, 0.001382013692172199, 0.9999990450186214, 0, 0, 0, 0, 1, 0, 0.27933165431022644, 2.454624891281128, 0, 1], "name" : "b"}, {"children" : [1, 3, 5, 7], "name" : "RootNode"}, {"children" : [8], "name" : "node3"}, {"children" : [9], "matrix" : [1, 0, 0, 0, 0, 0, 1, 0, 0, -1, 0, 0, 0, 0, 0, 1], "name" : "_2bde958fb4643638f790cd30ef6d0f4_fbx"}, {"children" : [10], "matrix" : [0.157060906291008, 0, 0, 0, 0, 0.157060906291008, 0, 0, 0, 0, 0.157060906291008, 0, 0, 0, 0, 1], "name" : "RootNode__model_correction_matrix_"}, {"children" : [11], "matrix" : [1, 0, 0, 0, 0, 3.422854177870249E-08, -0.9999999657714582, 0, 0, 0.9999999657714582, 3.422854177870249E-08, 0, 0, 0, 0, 1], "name" : "RootNode__gltf_orientation_matrix_"}, {"children" : [12], "matrix" : [100, 0, 0, 0, 0, 100, 0, 0, 0, 0, 100, 0, 0, 0, 0, 1], "name" : "Meshes"}, {"children" : [13], "name" : "scene"}], "samplers" : [{"magFilter" : 9729, "minFilter" : 9729, "wrapS" : 10497, "wrapT" : 10497}, {"magFilter" : 9729, "minFilter" : 9729, "wrapS" : 10497, "wrapT" : 10497}], "scene" : 0, "scenes" : [{"nodes" : [14]}], "textures" : [{"sampler" : 0, "source" : 0}, {"sampler" : 1, "source" : 1}]}